<svg id="Layer_1" data-name="Layer 1" xmlns="http://www.w3.org/2000/svg" viewBox="0 0 194.82 200"><defs><style>.cls-1{fill:#fff;}</style></defs><title>er symbol</title><path class="cls-1" d="M129,150.17v10.62c0,9.25,0,18.5,0,27.75,0,7.5-3.94,11.43-11.39,11.44q-17.58,0-35.16,0c-7.31,0-11.22-3.93-11.24-11.31,0-11.64,0-23.29,0-34.93v-3.62c-1.2.66-2,1.06-2.75,1.5q-15.51,8.94-31,17.86c-6,3.47-11.56,2-15.09-4.06q-9-15.46-17.92-31c-3.39-5.9-1.84-11.53,4.06-15q15.3-8.85,30.61-17.67c.91-.52,1.81-1.08,3.07-1.83-1.58-.93-2.87-1.69-4.17-2.44q-14.7-8.49-29.4-17C2.45,77,1,71.53,4.43,65.48q9-15.62,18-31.2c3.25-5.62,9-7.19,14.63-4Q52.38,39.1,67.67,48c1,.57,2,1.12,3.48,2v-3c0-11.95,0-23.9,0-35.85,0-3.33.73-6.43,3.49-8.41a11.71,11.71,0,0,1,6-2.45C93.57-.06,106.53,0,119.48.08c5.55.05,9.46,4.73,9.47,11,0,11.1,0,22.2,0,33.3v5.48c1.08-.58,1.81-1,2.51-1.36l31.21-18c5.9-3.4,11.54-2,15,3.93q9.06,15.57,18,31.2c3.38,5.91,1.82,11.46-4.14,14.92q-15.57,9-31.17,18L158,100c.86.54,1.51,1,2.19,1.39L190.8,119c7,4,8.37,9.27,4.35,16.24q-8.6,14.91-17.2,29.8c-3.78,6.54-9.26,8-15.76,4.21q-15.49-9-31-17.92C130.61,151,130,150.72,129,150.17ZM104.73,62.9c0-3.22.1-5.61,0-8a5.2,5.2,0,0,1,2.35-5c5.53-4.16,6.16-12.4,1.65-17.7A12.49,12.49,0,0,0,90.92,31c-5.34,4.74-6.11,13-.84,17.6,3.14,2.75,3.73,5.55,3.48,9.14a9,9,0,0,0,.06,2.08c.33,1.87-.5,2.46-2.29,2.79C75.23,65.57,67.77,84.75,77.5,98c3.86,5.25,9.33,8.16,15.18,10.49a2.93,2.93,0,0,1,2.23,3.14q.12,14.11.58,28.21c.08,2.27-.43,3.57-2.55,4.72-5.2,2.8-9,7-10.57,12.81a4.41,4.41,0,0,0,.81,3.49c1.55,1.79,4.23.84,5.19-1.77a15,15,0,0,1,7.91-8.67c0,7.22,0,13.9,0,20.58,0,2.9.91,4.11,2.9,4.1s2.71-1.13,2.78-3.94c.19-7.39.41-14.79.51-22.19a3,3,0,0,1,2-2.95,90.76,90.76,0,0,0,10.78-6.16c8.35-6,11.17-23-.8-30.9a64.68,64.68,0,0,0-8.65-4.82,3.12,3.12,0,0,1-2.1-3.47c.27-8.93.41-17.88.61-26.82a13.26,13.26,0,0,1,.24-1.64,6.18,6.18,0,0,1,1.92.41c2.5,1.6,5.22,3,7.33,5,3.66,3.52,7.7,5.18,12.76,4.42,4.14-.62,7.88-3.58,8.63-7,.82-3.71-1-7.67-4.58-10.12-3.83-2.62-8.06-3.1-12.58-2.67C113.66,62.6,109.31,62.67,104.73,62.9Z" transform="translate(-2.59)"/><path class="cls-1" d="M103.16,112.84c7.44,1.72,12,6.42,12,11.92,0,6.54-5.24,12.61-12,14Z" transform="translate(-2.59)"/><path class="cls-1" d="M94.19,98.29c-7.54-3.16-11-8.61-9.92-15.92a11.34,11.34,0,0,1,9.92-9.3Z" transform="translate(-2.59)"/></svg>