<svg id="Layer_1" data-name="Layer 1" xmlns="http://www.w3.org/2000/svg" viewBox="0 0 187.18 200"><defs><style>.cls-1{fill:#fff;}</style></defs><title>hospital</title><path class="cls-1" d="M66.42,0V59.58h67.16V0Zm26,10.34h15.14V22.21h11.88V37.36H107.57v12H92.43v-12h-12V22.21h12Zm-66,30c-3.75,0-6.19,2.29-6.19,4.52V184.12H82.67V146.9c0-3.43,3.07-5.68,6.19-5.68h22.21c3.12,0,6.19,2.25,6.19,5.68v37.22h62.42V44.87c0-2.23-2.44-4.52-6.19-4.52H139.62V62.56a3,3,0,0,1-3,3.06H63.37a3,3,0,0,1-3-3.06V40.35ZM36.49,80.19H53.61V93.08H36.49Zm36.63,0H90.24V93.08H73.12Zm36.64,0h17V93.08h-17Zm36.63,0h17.05V93.08H146.39ZM36.49,110.41H53.61v12.9H36.49Zm36.63,0H90.24v12.9H73.12Zm36.64,0h17v12.9h-17Zm36.63,0h17.05v12.9H146.39ZM36.49,140.64H53.61v13H36.49v-13Zm109.9,0h17.05v13H146.39v-13Zm-57.53,6.63c-.16,0-.13.07-.15.07v36.78h22.51V147.34s0-.07-.15-.07Zm-82.3,42.9c-.16,0-.13.07-.15.07V200H193.59v-9.76a.32.32,0,0,0-.22-.07h-9.32a3.08,3.08,0,0,1-2.62,0H115.59a3.1,3.1,0,0,1-2.63,0H87a3.1,3.1,0,0,1-2.63,0H18.57a3.08,3.08,0,0,1-2.62,0Z" transform="translate(-6.41)"/></svg>