<svg xmlns="http://www.w3.org/2000/svg" viewBox="0 0 214.74 200.03"><defs><style>.cls-1{fill:#fff;}</style></defs><title>jail</title><g id="Layer_2" data-name="Layer 2"><rect y="0.03" width="214.74" height="200"/></g><g id="Layer_1" data-name="Layer 1"><path class="cls-1" d="M136.42,119.19v14a14.77,14.77,0,0,1-14.8,14.8h-44a15,15,0,0,1-14.8-14.8v-14A18.37,18.37,0,0,1,76,101.58l4-1.2a11.46,11.46,0,0,1,11.61,3.2l8,8.81,7.6-8.81a11.44,11.44,0,0,1,11.6-3.2l4.4,1.2A18.37,18.37,0,0,1,136.42,119.19Z" transform="translate(6.15 0.03)"/><path class="cls-1" d="M79.21,72.78A20.81,20.81,0,1,1,100,93.58,20.66,20.66,0,0,1,79.21,72.78Z" transform="translate(6.15 0.03)"/><path class="cls-1" d="M188,28.37a11.79,11.79,0,0,0,12-12V12A11.79,11.79,0,0,0,188,0H12A11.79,11.79,0,0,0,0,12v4.4a11.79,11.79,0,0,0,12,12H22.4V171.6H12a11.79,11.79,0,0,0-12,12V188a11.79,11.79,0,0,0,12,12H188a11.79,11.79,0,0,0,12-12v-4.4a11.79,11.79,0,0,0-12-12h-10.4V28.37ZM51.61,171.6H30.41V28.37H52V171.6Zm92.81-38.41a21.82,21.82,0,0,1-4.4,13.2V171.2h-21.6V156h-8V171.6H88.81V156h-8V171.6H59.21V146.79a21.82,21.82,0,0,1-4.4-13.2v-14a27.87,27.87,0,0,1,4.4-14.81v-76h21.6V51.18a32.43,32.43,0,0,1,8-4.81v-18h21.61V46a32.43,32.43,0,0,1,8,4.81V28.37H140v76.41a25.55,25.55,0,0,1,4.4,14.41Zm25.21,38.41H148V28.37h21.61Z" transform="translate(6.15 0.03)"/></g></svg>