<svg id="Layer_1" data-name="Layer 1" xmlns="http://www.w3.org/2000/svg" viewBox="0 0 200 200"><defs><style>.cls-1{fill:#fff;}.cls-2,.cls-3{fill:none;stroke:#fff;stroke-miterlimit:10;}.cls-2{stroke-width:14px;}.cls-3{stroke-width:10px;}</style></defs><title>qualityoflife</title><path class="cls-1" d="M100,15a85,85,0,1,1-85,85,85.1,85.1,0,0,1,85-85m0-15A100,100,0,1,0,200,100,100,100,0,0,0,100,0Z"/><path class="cls-1" d="M100,46.42A53.58,53.58,0,1,1,46.42,100,53.65,53.65,0,0,1,100,46.42m0-10A63.58,63.58,0,1,0,163.58,100,63.59,63.59,0,0,0,100,36.42Z"/><circle class="cls-1" cx="127.77" cy="83.72" r="8.87"/><circle class="cls-1" cx="72.23" cy="83.72" r="8.87"/><line class="cls-2" x1="170.71" y1="29.29" x2="29.29" y2="170.71"/><path class="cls-3" d="M129,100a29,29,0,0,1-29,29"/><path class="cls-3" d="M71,100a29,29,0,0,0,29,29"/></svg>