<svg xmlns="http://www.w3.org/2000/svg" viewBox="0 0 95.03 51.6"><defs><style>.cls-1{fill:#fff;}</style></defs><title>therapy</title><g id="Layer_1" data-name="Layer 1"><circle class="cls-1" cx="78.5" cy="11.5" r="5.4"/><path class="cls-1" d="M93.43,19.4a1.91,1.91,0,0,0-2.2,1.5L88.53,36a3.75,3.75,0,0,1-3.7,3.1h-8.6a1.9,1.9,0,0,0,0,3.8h.9l-1.9,6.8a1.37,1.37,0,0,0,1,1.7c.1,0,.3.1.4.1a1.3,1.3,0,0,0,1.3-1L80,43h4.8a4.87,4.87,0,0,0,1.2-.1l2.2,7.7a1.38,1.38,0,0,0,1.3,1,.6.6,0,0,0,.4-.1,1.45,1.45,0,0,0,1-1.7L88.73,42a7.61,7.61,0,0,0,3.6-5.2L95,21.7A1.86,1.86,0,0,0,93.43,19.4Z" transform="translate(-0.03)"/><path class="cls-1" d="M85.33,35.4a5.1,5.1,0,0,0,.8-3.3c0-1.3-.3-7.9-.4-9.7a5.15,5.15,0,0,0-1.8-3.9,4,4,0,0,0-3-.6s-.6.1-1.4.3A4.4,4.4,0,0,0,76,22.5l-.2,8.7h-4.9a4,4,0,0,0-4,4V48.7a2.8,2.8,0,1,0,5.6-.1V37.8a1,1,0,0,1,1-1h8.7A4.1,4.1,0,0,0,85.33,35.4Z" transform="translate(-0.03)"/><circle class="cls-1" cx="13.7" cy="21.8" r="5.3"/><path class="cls-1" d="M59.53,39H28.93A10.54,10.54,0,0,1,24,37.7L5.63,27V22.2a1.32,1.32,0,0,0-1.3-1.3h-3A1.32,1.32,0,0,0,0,22.2v28a1.32,1.32,0,0,0,1.3,1.3h58.8a1.32,1.32,0,0,0,1.3-1.3V40.9A1.9,1.9,0,0,0,59.53,39Z" transform="translate(-0.03)"/><path class="cls-1" d="M33.33,27.4,24.53,24a4.31,4.31,0,0,0-4.1.6,4.12,4.12,0,0,0,.5,6.8l5.3,3.1a6.86,6.86,0,0,0,3.7,1h27.9A2.22,2.22,0,0,0,60,33.3a2.17,2.17,0,0,0-1.9-2.2L35.93,28A11,11,0,0,1,33.33,27.4Z" transform="translate(-0.03)"/><path class="cls-1" d="M23.93,14.9a7.18,7.18,0,0,1-1.4,2.5,1.16,1.16,0,0,0,1.3,1.8c1.8-.7,3.7-1.6,5.6-2.5a12.1,12.1,0,0,0,1.9.1c6.5,0,11.8-3.8,11.8-8.4S37.83,0,31.33,0s-11.8,3.7-11.8,8.3C19.53,11,21.23,13.4,23.93,14.9Zm13.3-8.4a1.9,1.9,0,1,1-1.9,1.9A1.84,1.84,0,0,1,37.23,6.5Zm-5.9,0a1.9,1.9,0,1,1-1.9,1.9A1.84,1.84,0,0,1,31.33,6.5Zm-5.9,0a1.9,1.9,0,1,1-1.9,1.9A1.9,1.9,0,0,1,25.43,6.5Z" transform="translate(-0.03)"/></g></svg>