<svg xmlns="http://www.w3.org/2000/svg" viewBox="0 0 200 200"><defs><style>.cls-1{fill:#fff;}.cls-2{fill:none;stroke:#fff;stroke-miterlimit:10;stroke-width:15px;}</style></defs><title>wage</title><g id="Layer_1" data-name="Layer 1"><path class="cls-1" d="M56.8,118.15H50a4.51,4.51,0,0,0-4.51,4.5v32.67a4.5,4.5,0,0,0,4.51,4.5h6.8a4.5,4.5,0,0,0,4.5-4.5V122.65A4.51,4.51,0,0,0,56.8,118.15Z"/><path class="cls-1" d="M141.9,127.06c-32.4,17.11-45.5,7.51-47.32,4.5,14.65,3.76,20.28.38,21-1.5s2.25-7.14-6.38-7.89-22.15-5.63-29.29-6c-4.37-.23-9.17,4.33-12.24,7.89v31.18c7.92,1,28.53,3.29,37.21,3,10.84-.37,35.11-16.15,40.73-22.9S144.43,125.72,141.9,127.06Z"/><path class="cls-1" d="M130.94,122.8a28.07,28.07,0,1,0-28.07-28.07A28.07,28.07,0,0,0,130.94,122.8Zm-1.81-26.25c-4.42-1.3-6.21-3.73-6.93-5.53a8.92,8.92,0,0,1,.86-7.86,8,8,0,0,1,5.29-3.8V75.42H134v3.74a25.93,25.93,0,0,1,5.35,1.24l-1.9,5.3c-2.44-.86-8.2-2-9.49.26a3.6,3.6,0,0,0-.52,3c.37.91,1.53,1.7,3.3,2.22,7.61,2.25,11.11,6,10.4,11.26a8.24,8.24,0,0,1-4.9,6.59,11,11,0,0,1-2.24.7V114h-5.64v-4.29a20.24,20.24,0,0,1-7.68-3l3.14-4.68c3.06,2,7.69,2.87,10.11,1.78a2.59,2.59,0,0,0,1.62-2.2C135.65,100.81,136,98.58,129.13,96.55Z"/><path class="cls-1" d="M86.45,78.72A22.84,22.84,0,1,0,63.61,55.88,22.83,22.83,0,0,0,86.45,78.72ZM85,57.36c-3.6-1.06-5-3-5.63-4.49a7.27,7.27,0,0,1,.69-6.4,6.52,6.52,0,0,1,4.31-3.09v-3.2h4.58v3a22.26,22.26,0,0,1,4.36,1l-1.55,4.32c-2-.7-6.67-1.62-7.72.21a2.9,2.9,0,0,0-.42,2.41c.29.74,1.25,1.38,2.68,1.81,6.19,1.83,9,4.92,8.46,9.16a6.67,6.67,0,0,1-4,5.36,8.65,8.65,0,0,1-1.83.57v3.53H84.34V68.1a16.34,16.34,0,0,1-6.24-2.44l2.55-3.8c2.48,1.67,6.25,2.33,8.22,1.44a2.09,2.09,0,0,0,1.31-1.79C90.27,60.83,90.52,59,85,57.36Z"/></g><g id="Layer_2" data-name="Layer 2"><line class="cls-2" x1="29.29" y1="170.71" x2="170.71" y2="29.29"/><path class="cls-1" d="M100,15a85,85,0,1,1-85,85,85.1,85.1,0,0,1,85-85m0-15A100,100,0,1,0,200,100,100,100,0,0,0,100,0Z"/></g></svg>